<svg enable-background="new 0 0 110 110" height="512" viewBox="0 0 110 110" width="512" xmlns="http://www.w3.org/2000/svg"><path d="m94.6393356 59.549324v-3.5737495l-2.70858-.48629c-.1922379-.7181435-.474968-1.402401-.8425293-2.0299835l1.5719986-2.2561836-2.5219727-2.5220032-2.2561798 1.5719986c-.633316-.3675613-1.3118744-.6502914-2.0356445-.8481903l-.4863281-2.702919h-3.5680542l-.480629 2.702919c-.7238007.1922379-1.4023285.480629-2.0356445.8481903l-2.256218-1.5719986-2.5219269 2.5220032 1.5662994 2.2561836c-.3618698.6275826-.6445999 1.3174973-.8425293 2.0356445l-2.7028885.480629v3.5737495l2.7028885.4805603c.1979294.7181473.4806595 1.402401.8425293 2.0357132l-1.5662994 2.2561798 2.5219269 2.5219345 2.256218-1.5719986c.633316.367569 1.3118439.6502991 2.0356445.8481903l.480629 2.7029266h3.5680542l.4863281-2.7029266c.7181091-.1978912 1.4023285-.4806213 2.0356445-.8481903l2.2561798 1.5719986 2.5219727-2.5219345-1.5719986-2.2618408c.3675613-.6276512.6559525-1.3119049.8425293-2.0300522zm-11.0604095 2.7480622c-2.5049896 0-4.5406723-2.0299835-4.5406723-4.5350075 0-2.5049515 2.0356827-4.540596 4.5406723-4.540596 2.504982 0 4.5349655 2.0356445 4.5349655 4.540596 0 2.5050239-2.0299835 4.5350075-4.5349655 4.5350075z" fill="#4da0dc"/><path d="m83.5789261 51.5310593c-3.4380112 0-6.2313919 2.7877541-6.2313919 6.2313194 0 3.4380455 2.7933807 6.2313919 6.2313919 6.2313919 3.443634 0 6.2313538-2.7933464 6.2313538-6.2313919-.0000001-3.4435654-2.7877198-6.2313194-6.2313538-6.2313194zm0 10.7663269c-2.5049896 0-4.5406723-2.0299835-4.5406723-4.5350075 0-2.5049515 2.0356827-4.540596 4.5406723-4.540596 2.504982 0 4.5349655 2.0356445 4.5349655 4.540596 0 2.5050239-2.0299835 4.5350075-4.5349655 4.5350075z" fill="#4288b9"/><path d="m70.8808365 72.9933243v-4.11586l-3.6168137-.5812683c-.0998383-.7397995-.2407455-1.4678497-.4286728-2.1841431l3.1177521-1.9140854-1.573494-3.8046684-3.5639877.851326c-.3757095-.6398888-.7926254-1.2622948-1.2388611-1.8494339l2.1489563-2.9709702-2.9063187-2.9063187-2.9709663 2.1488838c-.5871429-.4521103-1.2095451-.8630791-1.8495102-1.2387886l.8513985-3.5639839-3.8046646-1.5735016-1.9140854 3.1117363c-.7163658-.1819077-1.444416-.3228149-2.1842194-.4225807l-.5812645-3.6227608h-4.1158638l-.5812645 3.6227608c-.7398033.0997658-1.4678535.2406731-2.1841469.4225807l-1.9140854-3.1117363-3.8046646 1.5735016.851326 3.5639839c-.6399612.3757095-1.2623672.7866783-1.8495064 1.2387886l-2.9708977-2.1488838-2.9063931 2.9063187 2.1489582 2.9709702c-.4520378.5871391-.8630829 1.2095451-1.2388592 1.8494339l-3.5639877-.851326-1.5734978 3.8046684 3.117754 1.9140854c-.1879253.7162933-.3288345 1.4443436-.4286022 2.1841431l-3.6168804.5812683v4.11586l3.6168804.5812683c.0997677.7399445.2406769 1.4678497.4286022 2.184288l-3.117754 1.9139404 1.5734978 3.7989349 3.5639877-.8454514c.3757763.6398926.7868214 1.2622986 1.2388592 1.8494339l-2.1489582 2.9649506 2.9063931 2.9121933 2.9708977-2.148735c.5871391.4460907 1.2095451.8572006 1.8495064 1.2387848l-.851326 3.5638428 3.8046646 1.5736389 1.9140854-3.1177521c.7162933.1877823 1.4443436.3288345 2.1841469.4286041l.5812645 3.6168823h4.1158638l.5812645-3.6168823c.7398033-.0997696 1.4678535-.2408218 2.1842194-.4286041l1.9140854 3.1177521 3.8046646-1.5736389-.8513985-3.5638428c.6399651-.3815842 1.2623672-.7926941 1.8495102-1.2387848l2.9709663 2.148735 2.9063187-2.9121933-2.1489563-2.9649506c.4462357-.5871353.8631516-1.2095413 1.2388611-1.8494339l3.5639877.8454514 1.573494-3.7989349-3.1177521-1.9139404c.1879272-.7164383.3288345-1.4443436.4286728-2.184288zm-22.5756226-7.3216324c2.9122696 0 5.2667122 2.3544464 5.2667122 5.2607651 0 2.9064636-2.3544426 5.266777-5.2667122 5.266777-2.9063187 0-5.2607613-2.3603134-5.2607613-5.266777.0000001-2.9063187 2.3544427-5.2607651 5.2607613-5.2607651z" fill="#344d5b"/><path d="m48.3052139 54.4162445c-9.1182442 0-16.5104046 7.398037-16.5104046 16.5162125 0 9.1241913 7.3921604 16.5162125 16.5104046 16.5162125 9.1241951 0 16.5162811-7.3920212 16.5162811-16.5162125.0000001-9.1181755-7.392086-16.5162125-16.5162811-16.5162125zm0 21.7829895c-2.9063187 0-5.2607613-2.3603134-5.2607613-5.266777 0-2.9063187 2.3544426-5.2607651 5.2607613-5.2607651 2.9122696 0 5.2667122 2.3544464 5.2667122 5.2607651 0 2.9064636-2.3544426 5.266777-5.2667122 5.266777z" fill="#293b44"/><path d="m48.3052139 60.3932991c-5.8185883 0-10.5391541 4.7206383-10.5391541 10.5391579 0 5.8243942 4.7205658 10.539299 10.5391541 10.539299 5.8244667 0 10.545105-4.7149048 10.545105-10.539299 0-5.8185196-4.7206383-10.5391579-10.545105-10.5391579zm0 15.8059349c-2.9063187 0-5.2607613-2.3603134-5.2607613-5.266777 0-2.9063187 2.3544426-5.2607651 5.2607613-5.2607651 2.9122696 0 5.2667122 2.3544464 5.2667122 5.2607651 0 2.9064636-2.3544426 5.266777-5.2667122 5.266777z" fill="#344d5b"/><path d="m80.1885223 32.9469185v-3.1169682l-2.739006-.4397564c-.3463516-2.5116901-1.3336105-4.8177814-2.7947235-6.7470016l1.6258774-2.2477684-2.2040024-2.2040005-2.2488022 1.6266346c-1.9291611-1.4592686-4.2347107-2.4450016-6.7452621-2.7911396l-.4404068-2.743351h-3.1169662l-.4404106 2.7432442c-2.510006.3461361-4.8152275 1.332304-6.7442322 2.7920074l-2.2498322-1.6273956-2.2039986 2.2040005 1.6271782 2.2496147c-1.4600296 1.9286766-2.4466324 4.2339001-2.7929878 6.7447205l-2.7420464.4401913v3.1169682l2.7419395.4401894c.346138 2.5109291 1.3326836 4.8164787 2.7926598 6.7452621l-1.6267433 2.2489662 2.2039986 2.2039986 2.2491264-1.6268501c1.9291649 1.4601364 4.2347717 2.4465218 6.7451019 2.7926598l.4402466 2.7420464h3.1169662l.4402466-2.742157c2.5109253-.3461342 4.816803-1.3321953 6.7461319-2.79179l2.2480927 1.626091 2.2040024-2.2039986-1.6254959-2.2472267c1.4610596-1.9293289 2.4483185-4.2356377 2.7945023-6.7475433zm-17.1055717 2.7038154c-2.3532829 0-4.2617569-1.908474-4.2617569-4.2618122 0-2.3532276 1.908474-4.2617035 4.2617569-4.2617035 2.3533363 0 4.2618141 1.9084759 4.2618141 4.2617035 0 2.3533383-1.9084778 4.2618122-4.2618141 4.2618122z" fill="#dd584d"/><path d="m63.0829506 21.9534187c-5.2093163 0-9.4355049 4.2261868-9.4355049 9.435503 0 5.209425 4.2261887 9.4356136 9.4355049 9.4356136 5.2093697 0 9.4355583-4.2261887 9.4355583-9.4356136 0-5.2093162-4.2261886-9.435503-9.4355583-9.435503zm0 13.6973152c-2.3532829 0-4.2617569-1.908474-4.2617569-4.2618122 0-2.3532276 1.908474-4.2617035 4.2617569-4.2617035 2.3533363 0 4.2618141 1.9084759 4.2618141 4.2617035 0 2.3533383-1.9084778 4.2618122-4.2618141 4.2618122z" fill="#a64139"/><g fill="#48b29b"><path d="m86.4539261 31.1397705c-.1345215-12.7749023-10.5640869-23.1276855-23.3701172-23.1276855-7.7967529 0-15.0529785 3.8674316-19.4104004 10.3459473l2.0788574 1.3972168c3.8911133-5.7849121 10.3703613-9.2390137 17.331543-9.2390137 11.425293 0 20.7241211 9.2294922 20.859375 20.6235352h-1.8552246l3.1230469 4.1472168 3.1230469-4.1472168h-1.880127z"/><path d="m71.5083694 87.5767822c-5.3585205 7.4555664-14.0316162 11.9067383-23.2004394 11.9067383-15.6604004 0-28.4106426-12.675293-28.5419903-28.3051758h1.8409424l-3.1231689-4.1474609-3.1230478 4.1474609h1.9008799c.1315917 17.0102539 14.0057372 30.8095703 31.0463847 30.8095703 9.9733887 0 19.4063721-4.8413086 25.2335205-12.9506836z"/></g></svg>